<svg data-v-423bf9ae="" xmlns="http://www.w3.org/2000/svg" viewBox="0 0 434 90" class="iconLeft"><!----><!----><!----><g data-v-423bf9ae="" id="f3841b18-2b0f-4145-8354-28a6b8a2211b" fill="white" transform="matrix(6.458557615325557,0,0,6.458557615325557,103.28309345614662,6.216360477883228)"><path d="M8.67 1.36L8.67 1.36L8.67 10.50L6.09 10.50L2.90 3.81L2.90 10.50L1.04 10.50L1.04 1.36L3.61 1.36L6.80 8.05L6.80 1.36L8.67 1.36ZM14.15 10.65L14.15 10.65L14.15 10.65Q12.99 10.65 12.24 10.35L12.24 10.35L12.24 10.35Q11.48 10.04 11.03 9.52L11.03 9.52L11.03 9.52Q10.57 9.00 10.39 8.32L10.39 8.32L10.39 8.32Q10.21 7.64 10.21 6.89L10.21 6.89L10.21 6.89Q10.21 6.22 10.39 5.54L10.39 5.54L10.39 5.54Q10.57 4.87 10.97 4.33L10.97 4.33L10.97 4.33Q11.37 3.79 12.01 3.46L12.01 3.46L12.01 3.46Q12.66 3.12 13.58 3.12L13.58 3.12L13.58 3.12Q14.56 3.12 15.21 3.46L15.21 3.46L15.21 3.46Q15.86 3.79 16.25 4.33L16.25 4.33L16.25 4.33Q16.65 4.87 16.81 5.54L16.81 5.54L16.81 5.54Q16.97 6.22 16.97 6.89L16.97 6.89L16.97 7.52L12.01 7.52L12.01 7.52Q12.01 8.27 12.55 8.76L12.55 8.76L12.55 8.76Q13.09 9.25 14.03 9.25L14.03 9.25L14.03 9.25Q14.56 9.25 15.01 9.14L15.01 9.14L15.01 9.14Q15.46 9.03 15.78 8.89L15.78 8.89L15.78 8.89Q16.14 8.74 16.45 8.53L16.45 8.53L16.45 10.09L16.45 10.09Q16.45 10.11 16.27 10.19L16.27 10.19L16.27 10.19Q16.09 10.28 15.78 10.38L15.78 10.38L15.78 10.38Q15.47 10.49 15.05 10.57L15.05 10.57L15.05 10.57Q14.63 10.65 14.15 10.65ZM12.01 6.19L15.19 6.19L15.19 6.19Q15.19 5.95 15.13 5.66L15.13 5.66L15.13 5.66Q15.06 5.38 14.89 5.12L14.89 5.12L14.89 5.12Q14.71 4.87 14.40 4.70L14.40 4.70L14.40 4.70Q14.08 4.54 13.58 4.54L13.58 4.54L13.58 4.54Q13.15 4.54 12.85 4.70L12.85 4.70L12.85 4.70Q12.54 4.87 12.36 5.12L12.36 5.12L12.36 5.12Q12.18 5.38 12.10 5.66L12.10 5.66L12.10 5.66Q12.01 5.95 12.01 6.19L12.01 6.19ZM21.74 3.12L21.74 3.12L21.74 3.12Q22.30 3.12 22.96 3.29L22.96 3.29L22.96 3.29Q23.62 3.46 24.19 3.88L24.19 3.88L24.19 3.88Q24.77 4.30 25.15 5.03L25.15 5.03L25.15 5.03Q25.54 5.75 25.54 6.89L25.54 6.89L25.54 6.89Q25.54 8.02 25.15 8.75L25.15 8.75L25.15 8.75Q24.77 9.48 24.19 9.90L24.19 9.90L24.19 9.90Q23.62 10.32 22.96 10.49L22.96 10.49L22.96 10.49Q22.30 10.65 21.74 10.65L21.74 10.65L21.74 10.65Q21.18 10.65 20.52 10.49L20.52 10.49L20.52 10.49Q19.87 10.32 19.30 9.90L19.30 9.90L19.30 9.90Q18.73 9.48 18.35 8.75L18.35 8.75L18.35 8.75Q17.98 8.02 17.98 6.89L17.98 6.89L17.98 6.89Q17.98 5.75 18.35 5.03L18.35 5.03L18.35 5.03Q18.73 4.30 19.30 3.88L19.30 3.88L19.30 3.88Q19.87 3.46 20.52 3.29L20.52 3.29L20.52 3.29Q21.18 3.12 21.74 3.12ZM21.74 9.25L21.74 9.25L21.74 9.25Q22.53 9.25 23.05 8.64L23.05 8.64L23.05 8.64Q23.58 8.02 23.58 6.89L23.58 6.89L23.58 6.89Q23.58 5.75 23.05 5.14L23.05 5.14L23.05 5.14Q22.53 4.54 21.74 4.54L21.74 4.54L21.74 4.54Q20.99 4.54 20.47 5.14L20.47 5.14L20.47 5.14Q19.95 5.75 19.95 6.89L19.95 6.89L19.95 6.89Q19.95 7.45 20.09 7.89L20.09 7.89L20.09 7.89Q20.23 8.33 20.47 8.63L20.47 8.63L20.47 8.63Q20.71 8.93 21.04 9.09L21.04 9.09L21.04 9.09Q21.36 9.25 21.74 9.25ZM34.71 1.36L34.71 1.36L34.71 10.50L32.13 10.50L28.94 3.81L28.94 10.50L27.08 10.50L27.08 1.36L29.65 1.36L32.84 8.05L32.84 1.36L34.71 1.36ZM40.19 10.65L40.19 10.65L40.19 10.65Q39.03 10.65 38.28 10.35L38.28 10.35L38.28 10.35Q37.52 10.04 37.06 9.52L37.06 9.52L37.06 9.52Q36.61 9.00 36.43 8.32L36.43 8.32L36.43 8.32Q36.25 7.64 36.25 6.89L36.25 6.89L36.25 6.89Q36.25 6.22 36.43 5.54L36.43 5.54L36.43 5.54Q36.61 4.87 37.01 4.33L37.01 4.33L37.01 4.33Q37.41 3.79 38.05 3.46L38.05 3.46L38.05 3.46Q38.70 3.12 39.62 3.12L39.62 3.12L39.62 3.12Q40.60 3.12 41.25 3.46L41.25 3.46L41.25 3.46Q41.90 3.79 42.29 4.33L42.29 4.33L42.29 4.33Q42.69 4.87 42.85 5.54L42.85 5.54L42.85 5.54Q43.01 6.22 43.01 6.89L43.01 6.89L43.01 7.52L38.05 7.52L38.05 7.52Q38.05 8.27 38.59 8.76L38.59 8.76L38.59 8.76Q39.13 9.25 40.07 9.25L40.07 9.25L40.07 9.25Q40.60 9.25 41.05 9.14L41.05 9.14L41.05 9.14Q41.50 9.03 41.82 8.89L41.82 8.89L41.82 8.89Q42.18 8.74 42.49 8.53L42.49 8.53L42.49 10.09L42.49 10.09Q42.49 10.11 42.31 10.19L42.31 10.19L42.31 10.19Q42.13 10.28 41.82 10.38L41.82 10.38L41.82 10.38Q41.51 10.49 41.09 10.57L41.09 10.57L41.09 10.57Q40.67 10.65 40.19 10.65ZM38.05 6.19L41.23 6.19L41.23 6.19Q41.23 5.95 41.17 5.66L41.17 5.66L41.17 5.66Q41.10 5.38 40.93 5.12L40.93 5.12L40.93 5.12Q40.75 4.87 40.44 4.70L40.44 4.70L40.44 4.70Q40.12 4.54 39.62 4.54L39.62 4.54L39.62 4.54Q39.19 4.54 38.88 4.70L38.88 4.70L38.88 4.70Q38.58 4.87 38.40 5.12L38.40 5.12L38.40 5.12Q38.22 5.38 38.14 5.66L38.14 5.66L38.14 5.66Q38.05 5.95 38.05 6.19L38.05 6.19ZM43.64 10.50L46.03 6.73L43.67 3.29L45.91 3.29L47.32 5.60L47.32 5.60Q47.32 5.60 47.38 5.50L47.38 5.50L47.38 5.50Q47.43 5.40 47.53 5.24L47.53 5.24L47.53 5.24Q47.63 5.08 47.75 4.87L47.75 4.87L47.75 4.87Q47.88 4.66 48.01 4.45L48.01 4.45L48.01 4.45Q48.31 3.95 48.71 3.29L48.71 3.29L50.71 3.29L48.55 6.73L51.17 10.50L48.86 10.50L47.32 7.80L47.32 7.80Q47.32 7.80 47.25 7.92L47.25 7.92L47.25 7.92Q47.18 8.04 47.08 8.22L47.08 8.22L47.08 8.22Q46.97 8.41 46.83 8.66L46.83 8.66L46.83 8.66Q46.69 8.90 46.55 9.16L46.55 9.16L46.55 9.16Q46.20 9.74 45.78 10.50L45.78 10.50L43.64 10.50Z"></path></g><!----><g data-v-423bf9ae="" id="8400c163-4d6e-4a30-8200-cce8145a2d34" transform="matrix(1.5,0,0,1.5,-0.014999985694885254,1.000000000000007)" stroke="none" fill="white"><path d="M11.03 53H9.444L7.03 50.586V49a1 1 0 0 0-2 0v1.586L2.616 53H1.03a1 1 0 0 0 0 2h1.586l2.414 2.414V59a1 1 0 0 0 2 0v-1.586L9.444 55h1.586a1 1 0 0 0 0-2zM51.169 36.085c2.864-1.003 3.868-1.847 3.877-1.855.005-.004.011-.005.017-.009.005-.004.007-.011.013-.016A7.975 7.975 0 0 0 58.03 28c0-3.712-2.616-6.914-6.136-7.765.02.371.036.783.039 1.186a1.001 1.001 0 0 1-.992 1.009h-.009a1 1 0 0 1-1-.991 32.436 32.436 0 0 0-.113-2.228c-.975-4.259-5.356-7.134-9.858-5.93a1 1 0 0 1-1.111-.444c-1.47-2.402-4.02-3.836-6.82-3.836-3.734 0-7.021 2.647-7.813 6.294l-.004.013v.008c-.004.018-.438 1.845-.496 3.349a1 1 0 0 1-.998.961l-.039-.001a1 1 0 0 1-.961-1.038c.045-1.173.276-2.45.424-3.167A8.896 8.896 0 0 0 16.031 13c-4.391 0-8.062 3.182-8.839 7.359 1.025-.33 2.433-.596 3.996-.347a1 1 0 0 1-.315 1.976c-2.33-.372-4.3.799-4.319.811-.012.007-.026.01-.038.017-.014.007-.023.019-.037.025A7.954 7.954 0 0 0 2.031 30c0 3.817 2.708 7.041 6.345 7.808-.003-.45.023-.994.114-1.635a1 1 0 0 1 1.981.279c-.182 1.291-.054 2.095-.024 2.256A8.957 8.957 0 0 0 19.031 45a8.94 8.94 0 0 0 5.062-1.568c.833-.794 2.151-2.336 2.33-3.302a1 1 0 1 1 1.967.365c-.259 1.399-1.535 2.939-2.343 3.801a7.916 7.916 0 0 0 4.668 2.584l3.362.154a1 1 0 0 1-.045 1.999l-.047-.001-1.842-.084a9.491 9.491 0 0 0 8.388 5.053 9.397 9.397 0 0 0 6.859-2.963c-5.414-.31-8.075-4.303-8.199-4.495a.999.999 0 0 1 1.678-1.087c.122.185 2.857 4.228 8.484 3.53.009-.001.016.003.025.002.017-.002.032-.008.049-.009A7.984 7.984 0 0 0 57.03 41a7.962 7.962 0 0 0-1.524-4.674c-.696.419-1.847 1.007-3.675 1.647a1 1 0 0 1-.662-1.888zm-31.533 3.622a.997.997 0 0 1-1.414 0 .999.999 0 0 1 0-1.414c1.133-1.133 1.757-2.64 1.757-4.243s-.625-3.109-1.757-4.243c-1.133-1.133-2.64-1.757-4.243-1.757s-3.109.624-4.243 1.757a.999.999 0 1 1-1.414-1.414c1.511-1.511 3.52-2.343 5.657-2.343s4.146.832 5.657 2.343c1.511 1.511 2.343 3.52 2.343 5.657s-.832 4.146-2.343 5.657zm5.201-17.95C23.704 22.89 23.08 24.397 23.08 26s.625 3.109 1.757 4.243a.999.999 0 1 1-1.414 1.414c-1.511-1.511-2.343-3.52-2.343-5.657s.833-4.146 2.343-5.657a8.006 8.006 0 0 1 7.869-2.033 1 1 0 0 1-.551 1.923 5.998 5.998 0 0 0-5.904 1.524zM36.03 40a1 1 0 0 1 0 2c-4.411 0-8-3.589-8-8s3.589-8 8-8a1 1 0 0 1 0 2c-3.309 0-6 2.691-6 6s2.691 6 6 6zm.194-20.253a.999.999 0 1 1-1.414-1.414c1.511-1.511 3.52-2.343 5.657-2.343s4.146.832 5.657 2.343a.999.999 0 1 1-1.414 1.414c-1.133-1.133-2.64-1.757-4.243-1.757s-3.11.623-4.243 1.757zm16.048 21.496a.999.999 0 1 1 1.414 1.414C52.175 44.168 50.166 45 48.029 45s-4.146-.832-5.657-2.343-2.343-3.52-2.343-5.657.832-4.146 2.343-5.657a.999.999 0 1 1 1.414 1.414c-1.133 1.133-1.757 2.64-1.757 4.243s.624 3.109 1.757 4.243S46.426 43 48.029 43s3.11-.624 4.243-1.757zm-3-15.486C48.139 24.624 46.632 24 45.029 24s-3.109.624-4.243 1.757a.999.999 0 1 1-1.414-1.414C40.883 22.832 42.892 22 45.029 22s4.146.832 5.657 2.343a8.021 8.021 0 0 1 2.058 7.777 1 1 0 1 1-1.929-.529 6.016 6.016 0 0 0-1.543-5.834zM59.03 5c-2.206 0-4-1.794-4-4a1 1 0 0 0-2 0c0 2.206-1.794 4-4 4a1 1 0 0 0 0 2c2.206 0 4 1.794 4 4a1 1 0 0 0 2 0c0-2.206 1.794-4 4-4a1 1 0 0 0 0-2z"></path></g><!----></svg>