<svg data-v-423bf9ae="" xmlns="http://www.w3.org/2000/svg" viewBox="0 0 323.7674755173119 60" class="font"><!----><!----><!----><g data-v-423bf9ae="" id="f6b2be43-497b-4009-aef3-1ad96c598c91" fill="black" transform="matrix(6.458557615325557,0,0,6.458557615325557,-6.7169065438533835,-8.78363761476814)"><path d="M8.67 1.36L8.67 1.36L8.67 10.50L6.09 10.50L2.90 3.81L2.90 10.50L1.04 10.50L1.04 1.36L3.61 1.36L6.80 8.05L6.80 1.36L8.67 1.36ZM14.15 10.65L14.15 10.65L14.15 10.65Q12.99 10.65 12.24 10.35L12.24 10.35L12.24 10.35Q11.48 10.04 11.03 9.52L11.03 9.52L11.03 9.52Q10.57 9.00 10.39 8.32L10.39 8.32L10.39 8.32Q10.21 7.64 10.21 6.89L10.21 6.89L10.21 6.89Q10.21 6.22 10.39 5.54L10.39 5.54L10.39 5.54Q10.57 4.87 10.97 4.33L10.97 4.33L10.97 4.33Q11.37 3.79 12.01 3.46L12.01 3.46L12.01 3.46Q12.66 3.12 13.58 3.12L13.58 3.12L13.58 3.12Q14.56 3.12 15.21 3.46L15.21 3.46L15.21 3.46Q15.86 3.79 16.25 4.33L16.25 4.33L16.25 4.33Q16.65 4.87 16.81 5.54L16.81 5.54L16.81 5.54Q16.97 6.22 16.97 6.89L16.97 6.89L16.97 7.52L12.01 7.52L12.01 7.52Q12.01 8.27 12.55 8.76L12.55 8.76L12.55 8.76Q13.09 9.25 14.03 9.25L14.03 9.25L14.03 9.25Q14.56 9.25 15.01 9.14L15.01 9.14L15.01 9.14Q15.46 9.03 15.78 8.89L15.78 8.89L15.78 8.89Q16.14 8.74 16.45 8.53L16.45 8.53L16.45 10.09L16.45 10.09Q16.45 10.11 16.27 10.19L16.27 10.19L16.27 10.19Q16.09 10.28 15.78 10.38L15.78 10.38L15.78 10.38Q15.47 10.49 15.05 10.57L15.05 10.57L15.05 10.57Q14.63 10.65 14.15 10.65ZM12.01 6.19L15.19 6.19L15.19 6.19Q15.19 5.95 15.13 5.66L15.13 5.66L15.13 5.66Q15.06 5.38 14.89 5.12L14.89 5.12L14.89 5.12Q14.71 4.87 14.40 4.70L14.40 4.70L14.40 4.70Q14.08 4.54 13.58 4.54L13.58 4.54L13.58 4.54Q13.15 4.54 12.85 4.70L12.85 4.70L12.85 4.70Q12.54 4.87 12.36 5.12L12.36 5.12L12.36 5.12Q12.18 5.38 12.10 5.66L12.10 5.66L12.10 5.66Q12.01 5.95 12.01 6.19L12.01 6.19ZM21.74 3.12L21.74 3.12L21.74 3.12Q22.30 3.12 22.96 3.29L22.96 3.29L22.96 3.29Q23.62 3.46 24.19 3.88L24.19 3.88L24.19 3.88Q24.77 4.30 25.15 5.03L25.15 5.03L25.15 5.03Q25.54 5.75 25.54 6.89L25.54 6.89L25.54 6.89Q25.54 8.02 25.15 8.75L25.15 8.75L25.15 8.75Q24.77 9.48 24.19 9.90L24.19 9.90L24.19 9.90Q23.62 10.32 22.96 10.49L22.96 10.49L22.96 10.49Q22.30 10.65 21.74 10.65L21.74 10.65L21.74 10.65Q21.18 10.65 20.52 10.49L20.52 10.49L20.52 10.49Q19.87 10.32 19.30 9.90L19.30 9.90L19.30 9.90Q18.73 9.48 18.35 8.75L18.35 8.75L18.35 8.75Q17.98 8.02 17.98 6.89L17.98 6.89L17.98 6.89Q17.98 5.75 18.35 5.03L18.35 5.03L18.35 5.03Q18.73 4.30 19.30 3.88L19.30 3.88L19.30 3.88Q19.87 3.46 20.52 3.29L20.52 3.29L20.52 3.29Q21.18 3.12 21.74 3.12ZM21.74 9.25L21.74 9.25L21.74 9.25Q22.53 9.25 23.05 8.64L23.05 8.64L23.05 8.64Q23.58 8.02 23.58 6.89L23.58 6.89L23.58 6.89Q23.58 5.75 23.05 5.14L23.05 5.14L23.05 5.14Q22.53 4.54 21.74 4.54L21.74 4.54L21.74 4.54Q20.99 4.54 20.47 5.14L20.47 5.14L20.47 5.14Q19.95 5.75 19.95 6.89L19.95 6.89L19.95 6.89Q19.95 7.45 20.09 7.89L20.09 7.89L20.09 7.89Q20.23 8.33 20.47 8.63L20.47 8.63L20.47 8.63Q20.71 8.93 21.04 9.09L21.04 9.09L21.04 9.09Q21.36 9.25 21.74 9.25ZM34.71 1.36L34.71 1.36L34.71 10.50L32.13 10.50L28.94 3.81L28.94 10.50L27.08 10.50L27.08 1.36L29.65 1.36L32.84 8.05L32.84 1.36L34.71 1.36ZM40.19 10.65L40.19 10.65L40.19 10.65Q39.03 10.65 38.28 10.35L38.28 10.35L38.28 10.35Q37.52 10.04 37.06 9.52L37.06 9.52L37.06 9.52Q36.61 9.00 36.43 8.32L36.43 8.32L36.43 8.32Q36.25 7.64 36.25 6.89L36.25 6.89L36.25 6.89Q36.25 6.22 36.43 5.54L36.43 5.54L36.43 5.54Q36.61 4.87 37.01 4.33L37.01 4.33L37.01 4.33Q37.41 3.79 38.05 3.46L38.05 3.46L38.05 3.46Q38.70 3.12 39.62 3.12L39.62 3.12L39.62 3.12Q40.60 3.12 41.25 3.46L41.25 3.46L41.25 3.46Q41.90 3.79 42.29 4.33L42.29 4.33L42.29 4.33Q42.69 4.87 42.85 5.54L42.85 5.54L42.85 5.54Q43.01 6.22 43.01 6.89L43.01 6.89L43.01 7.52L38.05 7.52L38.05 7.52Q38.05 8.27 38.59 8.76L38.59 8.76L38.59 8.76Q39.13 9.25 40.07 9.25L40.07 9.25L40.07 9.25Q40.60 9.25 41.05 9.14L41.05 9.14L41.05 9.14Q41.50 9.03 41.82 8.89L41.82 8.89L41.82 8.89Q42.18 8.74 42.49 8.53L42.49 8.53L42.49 10.09L42.49 10.09Q42.49 10.11 42.31 10.19L42.31 10.19L42.31 10.19Q42.13 10.28 41.82 10.38L41.82 10.38L41.82 10.38Q41.51 10.49 41.09 10.57L41.09 10.57L41.09 10.57Q40.67 10.65 40.19 10.65ZM38.05 6.19L41.23 6.19L41.23 6.19Q41.23 5.95 41.17 5.66L41.17 5.66L41.17 5.66Q41.10 5.38 40.93 5.12L40.93 5.12L40.93 5.12Q40.75 4.87 40.44 4.70L40.44 4.70L40.44 4.70Q40.12 4.54 39.62 4.54L39.62 4.54L39.62 4.54Q39.19 4.54 38.88 4.70L38.88 4.70L38.88 4.70Q38.58 4.87 38.40 5.12L38.40 5.12L38.40 5.12Q38.22 5.38 38.14 5.66L38.14 5.66L38.14 5.66Q38.05 5.95 38.05 6.19L38.05 6.19ZM43.64 10.50L46.03 6.73L43.67 3.29L45.91 3.29L47.32 5.60L47.32 5.60Q47.32 5.60 47.38 5.50L47.38 5.50L47.38 5.50Q47.43 5.40 47.53 5.24L47.53 5.24L47.53 5.24Q47.63 5.08 47.75 4.87L47.75 4.87L47.75 4.87Q47.88 4.66 48.01 4.45L48.01 4.45L48.01 4.45Q48.31 3.95 48.71 3.29L48.71 3.29L50.71 3.29L48.55 6.73L51.17 10.50L48.86 10.50L47.32 7.80L47.32 7.80Q47.32 7.80 47.25 7.92L47.25 7.92L47.25 7.92Q47.18 8.04 47.08 8.22L47.08 8.22L47.08 8.22Q46.97 8.41 46.83 8.66L46.83 8.66L46.83 8.66Q46.69 8.90 46.55 9.16L46.55 9.16L46.55 9.16Q46.20 9.74 45.78 10.50L45.78 10.50L43.64 10.50Z"></path></g><!----><!----></svg>